<?xml version="1.0" encoding="UTF-8" standalone="no"?>
<!-- Created with Inkscape (http://www.inkscape.org/) -->

<svg
   xmlns:dc="http://purl.org/dc/elements/1.1/"
   xmlns:cc="http://creativecommons.org/ns#"
   xmlns:rdf="http://www.w3.org/1999/02/22-rdf-syntax-ns#"
   xmlns:svg="http://www.w3.org/2000/svg"
   xmlns="http://www.w3.org/2000/svg"
   xmlns:sodipodi="http://sodipodi.sourceforge.net/DTD/sodipodi-0.dtd"
   xmlns:inkscape="http://www.inkscape.org/namespaces/inkscape"
   width="203.70258mm"
   height="30.873489mm"
   viewBox="0 0 203.70258 30.87349"
   version="1.1"
   id="svg5715"
   inkscape:version="0.92.1 r15371"
   sodipodi:docname="logolightc.svg">
  <defs
     id="defs5709" />
  <sodipodi:namedview
     id="base"
     pagecolor="#ffffff"
     bordercolor="#666666"
     borderopacity="1.0"
     inkscape:pageopacity="0.0"
     inkscape:pageshadow="2"
     inkscape:zoom="0.5"
     inkscape:cx="192.92997"
     inkscape:cy="41.022498"
     inkscape:document-units="mm"
     inkscape:current-layer="g5192"
     showgrid="false"
     inkscape:window-width="1536"
     inkscape:window-height="801"
     inkscape:window-x="-8"
     inkscape:window-y="-8"
     inkscape:window-maximized="1"
     fit-margin-top="0"
     fit-margin-left="0"
     fit-margin-right="0"
     fit-margin-bottom="0" />
  <metadata
     id="metadata5712">
    <rdf:RDF>
      <cc:Work
         rdf:about="">
        <dc:format>image/svg+xml</dc:format>
        <dc:type
           rdf:resource="http://purl.org/dc/dcmitype/StillImage" />
        <dc:title></dc:title>
      </cc:Work>
    </rdf:RDF>
  </metadata>
  <g
     inkscape:label="Layer 1"
     inkscape:groupmode="layer"
     id="layer1"
     transform="translate(45.93634,-7.1942849)">
    <g
       id="g4867">
      <g
         id="g5192">
        <g
           id="g4612">
          <g
             inkscape:export-ydpi="7.7100019"
             inkscape:export-xdpi="7.7100019"
             transform="matrix(0.05922959,0,0,0.05922959,-34.994701,29.427422)"
             id="text5293-8-9-0-9-6-9"
             style="font-style:normal;font-weight:normal;font-size:263.81744385px;line-height:1.25;font-family:sans-serif;text-align:center;letter-spacing:0px;word-spacing:0px;text-anchor:middle;opacity:1;fill:#ffffff;fill-opacity:1;stroke:none;stroke-width:1.37621295;stroke-miterlimit:4;stroke-dasharray:none;stroke-opacity:0"
             aria-label="wallcopy">
            <path
               id="path6325"
               style="font-style:normal;font-variant:normal;font-weight:bold;font-stretch:normal;font-size:495.19003296px;line-height:0;font-family:Constantia;-inkscape-font-specification:'Constantia Bold';font-variant-ligatures:normal;font-variant-caps:normal;font-variant-numeric:normal;font-feature-settings:normal;text-align:center;writing-mode:lr-tb;text-anchor:middle;opacity:0.98000004;fill:#ffffff;fill-opacity:1;stroke:none;stroke-width:1.37621295;stroke-miterlimit:4;stroke-dasharray:none;stroke-opacity:0.37563453"
               d="m 1425.0718,-224.8646 q 14.2658,42.79718 39.6539,117.26912 5.0777,14.991105 10.3971,32.158338 5.5612,-16.683649 11.3642,-32.158338 17.8926,-48.11661 34.8181,-97.92576 l -25.1464,-7.25376 -1.209,-11.60602 q 17.6508,0.72538 44.248,0.72538 21.5194,0 43.0389,-0.72538 l 1.209,11.60602 -26.1135,7.01197 q -6.0448,1.93433 -9.4299,9.42988 -17.8926,43.76436 -42.3136,104.937735 -24.1792,61.173378 -36.5106,93.3317155 l -30.9494,3.3850881 q -12.815,-35.3016336 -34.5763,-96.9585956 -6.2865,-19.343363 -11.606,-35.301633 -6.2866,16.44186 -12.815,35.301633 -23.4538,61.41517 -36.027,93.5735075 l -30.9493,3.3850881 q -12.815,-35.3016336 -36.7524,-96.2332196 -23.9374,-61.173379 -40.8629,-104.212359 -3.8686,-8.46272 -10.6388,-10.88064 l -24.1792,-6.77017 -0.7254,-11.60602 q 31.6748,0.72538 66.7346,0.72538 33.3673,0 63.8331,-0.72538 l 1.4507,11.60602 -25.8717,7.25376 q 14.0239,44.73152 33.6091,97.92576 5.0776,14.991105 10.397,32.158338 5.5613,-16.683649 11.6061,-32.158338 23.6956,-66.4928 40.1374,-115.093 z"
               inkscape:connector-curvature="0" />
            <path
               id="path6327"
               style="font-style:normal;font-variant:normal;font-weight:bold;font-stretch:normal;font-size:495.19003296px;line-height:0;font-family:Constantia;-inkscape-font-specification:'Constantia Bold';font-variant-ligatures:normal;font-variant-caps:normal;font-variant-numeric:normal;font-feature-settings:normal;text-align:center;writing-mode:lr-tb;text-anchor:middle;opacity:0.98000004;fill:#ffffff;fill-opacity:1;stroke:none;stroke-width:1.37621295;stroke-miterlimit:4;stroke-dasharray:none;stroke-opacity:0.37563453"
               d="m 1729.9716,-106.62831 q -37.9614,0 -54.1614,9.671679 -16.2001,9.67168 -16.2001,33.125505 0,21.277697 11.3642,30.465793 11.606,8.946305 27.3225,8.946305 17.8926,0 31.1912,-9.188097 z m -118.2363,-99.8601 q 51.5017,-23.45383 99.1347,-23.45383 43.5226,0 65.042,19.58516 21.7613,19.34336 21.5195,55.85395 l -1.2089,100.585477 q -0.4836,12.331392 0.4836,19.826944 0.9671,7.495553 4.3522,11.606017 3.6269,3.868672 10.3971,5.561216 7.0119,1.692544 20.0687,1.934336 l 1.4508,11.1224323 q -33.8509,11.6060164 -58.2719,11.6060164 -32.8837,0 -43.2808,-25.8717447 -30.7076,25.8717447 -65.042,25.8717447 -33.6091,0 -55.3704,-16.6836486 -21.7613,-16.9254401 -21.7613,-47.3912331 0,-37.961346 35.0599,-55.612167 35.3016,-17.65081 105.6631,-17.65081 l 0.2418,-18.1344 q 0.2418,-25.87175 -12.5732,-37.96135 -12.5732,-12.33139 -39.4121,-12.33139 -24.9046,0 -59.7226,10.88064 z"
               inkscape:connector-curvature="0" />
            <path
               id="path6329"
               style="font-style:normal;font-variant:normal;font-weight:bold;font-stretch:normal;font-size:495.19003296px;line-height:0;font-family:Constantia;-inkscape-font-specification:'Constantia Bold';font-variant-ligatures:normal;font-variant-caps:normal;font-variant-numeric:normal;font-feature-settings:normal;text-align:center;writing-mode:lr-tb;text-anchor:middle;opacity:0.98000004;fill:#ffffff;fill-opacity:1;stroke:none;stroke-width:1.37621295;stroke-miterlimit:4;stroke-dasharray:none;stroke-opacity:0.37563453"
               d="m 1850.6258,-344.79344 q 60.448,-8.9463 105.4213,-18.61798 l 2.6597,1.93433 q -1.4507,33.3673 -1.4507,71.08685 v 223.65761 q 0,28.773249 0.4836,40.137474 0.4835,6.528384 6.0448,8.220928 l 30.224,8.4627201 0.7253,11.6060164 q -35.7852,-0.72537602 -71.0868,-0.72537602 -36.027,0 -71.0869,0.72537602 l -1.2089,-11.6060164 30.7076,-8.4627201 q 5.5612,-1.450752 6.0448,-7.25376 0.4835,-9.429889 0.4835,-31.674754 V -266.93641 q 0,-31.67476 -0.9671,-58.27188 l -35.5435,-9.67168 z"
               inkscape:connector-curvature="0" />
            <path
               id="path6331"
               style="font-style:normal;font-variant:normal;font-weight:bold;font-stretch:normal;font-size:495.19003296px;line-height:0;font-family:Constantia;-inkscape-font-specification:'Constantia Bold';font-variant-ligatures:normal;font-variant-caps:normal;font-variant-numeric:normal;font-feature-settings:normal;text-align:center;writing-mode:lr-tb;text-anchor:middle;opacity:0.98000004;fill:#ffffff;fill-opacity:1;stroke:none;stroke-width:1.37621295;stroke-miterlimit:4;stroke-dasharray:none;stroke-opacity:0.37563453"
               d="m 2014.0772,-344.79344 q 60.448,-8.9463 105.4213,-18.61798 l 2.6597,1.93433 q -1.4508,33.3673 -1.4508,71.08685 v 223.65761 q 0,28.773249 0.4836,40.137474 0.4836,6.528384 6.0448,8.220928 l 30.224,8.4627201 0.7254,11.6060164 Q 2122.4,0.96913248 2087.0983,0.96913248 q -36.027,0 -71.0868,0.72537602 l -1.209,-11.6060164 30.7076,-8.4627201 q 5.5612,-1.450752 6.0448,-7.25376 0.4836,-9.429889 0.4836,-31.674754 V -266.93641 q 0,-31.67476 -0.9672,-58.27188 l -35.5434,-9.67168 z"
               inkscape:connector-curvature="0" />
            <path
               id="path6333"
               style="font-style:normal;font-variant:normal;font-weight:bold;font-stretch:normal;font-size:495.19003296px;line-height:0;font-family:Constantia;-inkscape-font-specification:'Constantia Bold';font-variant-ligatures:normal;font-variant-caps:normal;font-variant-numeric:normal;font-feature-settings:normal;text-align:center;writing-mode:lr-tb;text-anchor:middle;opacity:0.98000004;fill:#ffffff;fill-opacity:1;stroke:none;stroke-width:1.37621295;stroke-miterlimit:4;stroke-dasharray:none;stroke-opacity:0.37563453"
               d="m 2391.2727,-14.98914 q -40.1375,22.7284487 -82.9347,22.7284487 -52.9524,0 -87.0451,-30.7075847 -34.0927,-30.707585 -34.0927,-81.967494 0,-55.85395 36.9942,-90.43021 37.236,-34.57626 94.7825,-34.57626 36.5106,0 70.3615,13.78215 -8.7045,34.09267 -15.2329,71.57043 l -13.2986,2.17613 -18.618,-60.448 q -6.5284,-2.41792 -17.6508,-2.41792 -27.5643,0 -45.2151,24.1792 -17.6508,23.93741 -17.6508,64.31667 0,47.149446 22.2449,69.636103 22.4866,22.244865 63.833,22.244865 19.827,0 41.5883,-4.594049 z"
               inkscape:connector-curvature="0" />
            <path
               id="path6335"
               style="font-style:normal;font-variant:normal;font-weight:bold;font-stretch:normal;font-size:495.19003296px;line-height:0;font-family:Constantia;-inkscape-font-specification:'Constantia Bold';font-variant-ligatures:normal;font-variant-caps:normal;font-variant-numeric:normal;font-feature-settings:normal;text-align:center;writing-mode:lr-tb;text-anchor:middle;opacity:0.98000004;fill:#ffffff;fill-opacity:1;stroke:none;stroke-width:1.37621295;stroke-miterlimit:4;stroke-dasharray:none;stroke-opacity:0.37563453"
               d="m 2492.8253,-113.88207 q 0,44.006144 13.0568,71.570433 13.2986,27.322497 42.3136,27.322497 27.0807,0 39.6539,-24.179201 12.815,-24.179201 12.815,-71.812229 0,-44.73152 -13.5404,-70.36147 -13.2985,-25.87175 -41.83,-25.87175 -26.5971,0 -39.6539,23.21204 -12.815,23.21203 -12.815,70.11968 z m 182.7948,-1.93434 q 0,55.12858 -36.7524,89.463046 -36.7524,34.0926727 -95.7496,34.0926727 -57.3047,0 -91.3974,-32.1583367 -34.0927,-32.400129 -34.0927,-84.627202 0,-52.95245 35.7852,-86.80333 35.7852,-34.09268 96.7168,-34.09268 57.7883,0 91.6392,31.43297 33.8509,31.19116 33.8509,82.69286 z"
               inkscape:connector-curvature="0" />
            <path
               id="path6337"
               style="font-style:normal;font-variant:normal;font-weight:bold;font-stretch:normal;font-size:495.19003296px;line-height:0;font-family:Constantia;-inkscape-font-specification:'Constantia Bold';font-variant-ligatures:normal;font-variant-caps:normal;font-variant-numeric:normal;font-feature-settings:normal;text-align:center;writing-mode:lr-tb;text-anchor:middle;opacity:0.98000004;fill:#ffffff;fill-opacity:1;stroke:none;stroke-width:1.37621295;stroke-miterlimit:4;stroke-dasharray:none;stroke-opacity:0.37563453"
               d="m 2703.4262,-202.37795 -1.4507,-9.91347 q 55.8539,-8.22093 102.278,-18.37619 l 3.6269,1.93433 v 22.72845 q 37.4777,-23.93741 72.2958,-23.93741 45.4569,0 72.054,30.22401 26.8389,29.9822 26.8389,78.5824 0,60.206208 -37.7195,94.540674 -37.4778,34.3344647 -99.1348,34.3344647 -16.4418,0 -34.3344,-3.3850881 V 55.372334 q 0,23.937409 0.4836,33.609089 0.4836,7.495553 6.5284,8.946305 l 34.0926,8.946302 0.7254,11.60602 q -40.1375,-0.72538 -75.4391,-0.72538 -36.2688,0 -71.0869,0.72538 l -1.2089,-11.60602 30.4658,-8.462718 q 5.803,-1.450752 6.0448,-7.25376 0.4836,-17.892609 0.4836,-53.677826 v -96.475012 q 0,-105.421314 -0.9672,-134.436354 z m 104.4542,182.55297 q 16.9254,3.62688 32.6419,3.62688 31.9165,0 48.3584,-24.420993 16.4419,-24.420993 16.4419,-69.877887 0,-42.79719 -15.4747,-64.55847 -15.4747,-22.00307 -44.7315,-22.00307 -21.036,0 -37.236,7.97913 z"
               inkscape:connector-curvature="0" />
            <path
               id="path6339"
               style="font-style:normal;font-variant:normal;font-weight:bold;font-stretch:normal;font-size:495.19003296px;line-height:0;font-family:Constantia;-inkscape-font-specification:'Constantia Bold';font-variant-ligatures:normal;font-variant-caps:normal;font-variant-numeric:normal;font-feature-settings:normal;text-align:center;writing-mode:lr-tb;text-anchor:middle;opacity:0.98000004;fill:#ffffff;fill-opacity:1;stroke:none;stroke-width:1.37621295;stroke-miterlimit:4;stroke-dasharray:none;stroke-opacity:0.37563453"
               d="m 2986.5646,-224.38102 q 32.1583,0.72538 58.2719,0.72538 33.8509,0 72.054,-0.72538 l 1.209,11.60602 -30.224,7.73734 q 9.4298,23.69562 17.8926,45.21511 8.4627,21.51949 22.4866,54.4032 6.2866,13.782143 13.5404,32.158336 7.2537,-18.859777 14.7493,-37.477766 19.5851,-51.50169 36.027,-94.78246 l -25.1464,-7.25376 -1.2089,-11.60602 q 18.8597,0.72538 44.4897,0.72538 22.2449,0 42.5554,-0.72538 l 1.209,11.60602 -23.2121,6.28659 q -7.7373,2.41792 -11.1224,9.91347 -8.4627,20.06874 -18.8598,44.48973 -31.4329,75.197316 -48.842,124.764678 -11.1224,32.1583366 -20.0687,65.525634 -8.9463,33.609089 -14.2657,58.99725 -2.6598,13.782148 -9.9135,18.859778 -7.2538,5.07763 -32.6419,5.07763 -26.5972,0 -50.7764,-1.93434 l -1.2089,-11.12243 q 28.0479,-3.62688 39.1703,-15.474686 15.9583,-16.683649 49.0838,-89.9466275 l 1.6925,-4.5940481 -12.815,-3.6268801 Q 3057.1679,-113.1567 3021.6245,-196.33315 q -2.9016,-7.49555 -10.8807,-9.91347 l -23.212,-6.52838 z"
               inkscape:connector-curvature="0" />
          </g>
          <path
             id="rect6625-6-7-8-5"
             d="M -27.302589,38.018279 V 23.055535 l 17.101386,-7.849986 v 14.962742 z"
             style="opacity:1;fill:#ffffff;fill-opacity:1;fill-rule:nonzero;stroke:#000000;stroke-width:0;stroke-linecap:round;stroke-linejoin:miter;stroke-miterlimit:4;stroke-dasharray:none;stroke-dashoffset:0;stroke-opacity:1;paint-order:stroke fill markers"
             inkscape:connector-curvature="0" />
          <path
             id="rect6625-6-4-4-7-86"
             d="M 9.9648836,38.04829 V 22.947316 L 27.066273,15.024804 V 30.12578 Z"
             style="opacity:1;fill:#ffffff;fill-opacity:1;fill-rule:nonzero;stroke:#000000;stroke-width:0;stroke-linecap:round;stroke-linejoin:miter;stroke-miterlimit:4;stroke-dasharray:none;stroke-dashoffset:0;stroke-opacity:1;paint-order:stroke fill markers"
             inkscape:connector-curvature="0" />
          <path
             inkscape:connector-curvature="0"
             id="rect6625-0-73-5-28"
             d="M 8.4325261,38.048307 V 22.94732 L -8.6688568,15.02481 v 15.100987 z"
             style="opacity:1;fill:#ffffff;fill-opacity:1;fill-rule:nonzero;stroke:#000000;stroke-width:0;stroke-linecap:round;stroke-linejoin:miter;stroke-miterlimit:4;stroke-dasharray:none;stroke-dashoffset:0;stroke-opacity:1;paint-order:stroke fill markers" />
          <path
             id="rect6625-6-4-4-8"
             d="M -27.302596,7.2137668 V 22.314742 l 17.101393,7.922512 V 15.136279 Z"
             style="opacity:1;fill:#ffffff;fill-opacity:1;fill-rule:nonzero;stroke:#000000;stroke-width:0;stroke-linecap:round;stroke-linejoin:miter;stroke-miterlimit:4;stroke-dasharray:none;stroke-dashoffset:0;stroke-opacity:1;paint-order:stroke fill markers"
             inkscape:connector-curvature="0" />
          <path
             inkscape:connector-curvature="0"
             id="rect6625-0-73-53"
             d="M -28.834954,7.2137517 V 22.314737 L -45.93634,30.237246 V 15.13626 Z"
             style="opacity:1;fill:#ffffff;fill-opacity:1;fill-rule:nonzero;stroke:#000000;stroke-width:0;stroke-linecap:round;stroke-linejoin:miter;stroke-miterlimit:4;stroke-dasharray:none;stroke-dashoffset:0;stroke-opacity:1;paint-order:stroke fill markers" />
          <path
             sodipodi:nodetypes="cc"
             inkscape:connector-curvature="0"
             id="path4969-09-9"
             d="m -44.469835,28.533268 14.034638,6.42732"
             style="opacity:1;fill:#ffffff;fill-opacity:1;stroke:#000000;stroke-width:0;stroke-linecap:round;stroke-linejoin:miter;stroke-miterlimit:4;stroke-dasharray:none;stroke-opacity:1" />
          <path
             sodipodi:nodetypes="cc"
             inkscape:connector-curvature="0"
             id="path4969-8-5-4"
             d="m -44.469835,26.557342 14.034638,6.42732"
             style="opacity:1;fill:#ffffff;fill-opacity:1;stroke:#000000;stroke-width:0;stroke-linecap:round;stroke-linejoin:miter;stroke-miterlimit:4;stroke-dasharray:none;stroke-opacity:1" />
          <path
             sodipodi:nodetypes="cc"
             inkscape:connector-curvature="0"
             id="path4969-0-8-6"
             d="m -44.469835,26.557342 14.034638,6.42732"
             style="opacity:1;fill:#ffffff;fill-opacity:1;stroke:#000000;stroke-width:0;stroke-linecap:round;stroke-linejoin:miter;stroke-miterlimit:4;stroke-dasharray:none;stroke-opacity:1" />
          <path
             sodipodi:nodetypes="cc"
             inkscape:connector-curvature="0"
             id="path4969-8-9-0-0"
             d="m -44.469835,24.581416 14.034638,6.42732"
             style="opacity:1;fill:#ffffff;fill-opacity:1;stroke:#000000;stroke-width:0;stroke-linecap:round;stroke-linejoin:miter;stroke-miterlimit:4;stroke-dasharray:none;stroke-opacity:1" />
          <path
             sodipodi:nodetypes="cc"
             inkscape:connector-curvature="0"
             id="path4969-8-0-6-1"
             d="m -44.469835,22.60549 14.034638,6.42732"
             style="opacity:1;fill:#ffffff;fill-opacity:1;stroke:#000000;stroke-width:0;stroke-linecap:round;stroke-linejoin:miter;stroke-miterlimit:4;stroke-dasharray:none;stroke-opacity:1" />
          <path
             sodipodi:nodetypes="cc"
             inkscape:connector-curvature="0"
             id="path4969-8-9-5-4-65"
             d="m -44.469835,20.629564 14.034638,6.42732"
             style="opacity:1;fill:#ffffff;fill-opacity:1;stroke:#000000;stroke-width:0;stroke-linecap:round;stroke-linejoin:miter;stroke-miterlimit:4;stroke-dasharray:none;stroke-opacity:1" />
          <path
             sodipodi:nodetypes="cc"
             inkscape:connector-curvature="0"
             id="path4969-8-1-2-77"
             d="m -44.469835,18.653638 14.034638,6.42732"
             style="opacity:1;fill:#ffffff;fill-opacity:1;stroke:#000000;stroke-width:0;stroke-linecap:round;stroke-linejoin:miter;stroke-miterlimit:4;stroke-dasharray:none;stroke-opacity:1" />
          <path
             sodipodi:nodetypes="cc"
             inkscape:connector-curvature="0"
             id="path4969-87-8-1"
             d="m -11.665827,28.533268 -14.034642,6.42732"
             style="opacity:1;fill:#ffffff;fill-opacity:1;stroke:#000000;stroke-width:0;stroke-linecap:round;stroke-linejoin:miter;stroke-miterlimit:4;stroke-dasharray:none;stroke-opacity:1" />
          <path
             sodipodi:nodetypes="cc"
             inkscape:connector-curvature="0"
             id="path4969-8-96-2-60"
             d="m -11.665827,26.557342 -14.034642,6.42732"
             style="opacity:1;fill:#ffffff;fill-opacity:1;stroke:#000000;stroke-width:0;stroke-linecap:round;stroke-linejoin:miter;stroke-miterlimit:4;stroke-dasharray:none;stroke-opacity:1" />
          <path
             sodipodi:nodetypes="cc"
             inkscape:connector-curvature="0"
             id="path4969-8-9-6-8-2"
             d="m -11.665827,24.581416 -14.034642,6.42732"
             style="opacity:1;fill:#ffffff;fill-opacity:1;stroke:#000000;stroke-width:0;stroke-linecap:round;stroke-linejoin:miter;stroke-miterlimit:4;stroke-dasharray:none;stroke-opacity:1" />
          <path
             sodipodi:nodetypes="cc"
             inkscape:connector-curvature="0"
             id="path4969-8-0-3-7-0"
             d="m -11.665827,22.60549 -14.034642,6.42732"
             style="opacity:1;fill:#ffffff;fill-opacity:1;stroke:#000000;stroke-width:0;stroke-linecap:round;stroke-linejoin:miter;stroke-miterlimit:4;stroke-dasharray:none;stroke-opacity:1" />
          <path
             sodipodi:nodetypes="cc"
             inkscape:connector-curvature="0"
             id="path4969-8-9-5-6-9-61"
             d="m -11.665827,20.629564 -14.034642,6.42732"
             style="opacity:1;fill:#ffffff;fill-opacity:1;stroke:#000000;stroke-width:0;stroke-linecap:round;stroke-linejoin:miter;stroke-miterlimit:4;stroke-dasharray:none;stroke-opacity:1" />
          <path
             sodipodi:nodetypes="cc"
             inkscape:connector-curvature="0"
             id="path4969-8-1-7-4-63"
             d="m -11.665827,18.653638 -14.034642,6.42732"
             style="opacity:1;fill:#ffffff;fill-opacity:1;stroke:#000000;stroke-width:0;stroke-linecap:round;stroke-linejoin:miter;stroke-miterlimit:4;stroke-dasharray:none;stroke-opacity:1" />
          <path
             id="rect6625-6-7-8-8-03"
             d="M 9.9648893,7.2437791 V 22.206521 L 27.066273,30.05651 V 15.093767 Z"
             style="opacity:1;fill:#ffffff;fill-opacity:1;fill-rule:nonzero;stroke:#000000;stroke-width:0;stroke-linecap:round;stroke-linejoin:miter;stroke-miterlimit:4;stroke-dasharray:none;stroke-dashoffset:0;stroke-opacity:1;paint-order:stroke fill markers"
             inkscape:connector-curvature="0" />
          <path
             id="rect6625-8-3-5-6"
             d="M 8.4325336,7.1942857 V 22.157026 L -8.6688511,30.007014 V 15.044272 Z"
             style="opacity:1;fill:#ffffff;fill-opacity:1;fill-rule:nonzero;stroke:#000000;stroke-width:0;stroke-linecap:round;stroke-linejoin:miter;stroke-miterlimit:4;stroke-dasharray:none;stroke-dashoffset:0;stroke-opacity:1;paint-order:stroke fill markers"
             inkscape:connector-curvature="0" />
          <path
             sodipodi:nodetypes="cc"
             inkscape:connector-curvature="0"
             id="path4969-09-8-1"
             d="M -7.2023569,16.728791 6.832283,10.301469"
             style="opacity:1;fill:#ffffff;fill-opacity:1;stroke:#000000;stroke-width:0;stroke-linecap:round;stroke-linejoin:miter;stroke-miterlimit:4;stroke-dasharray:none;stroke-opacity:1" />
          <path
             sodipodi:nodetypes="cc"
             inkscape:connector-curvature="0"
             id="path4969-8-5-5-8"
             d="M -7.2023569,18.704716 6.832283,12.277395"
             style="opacity:1;fill:#ffffff;fill-opacity:1;stroke:#000000;stroke-width:0;stroke-linecap:round;stroke-linejoin:miter;stroke-miterlimit:4;stroke-dasharray:none;stroke-opacity:1" />
          <path
             sodipodi:nodetypes="cc"
             inkscape:connector-curvature="0"
             id="path4969-0-8-5-8"
             d="M -7.2023569,18.704716 6.832283,12.277395"
             style="opacity:1;fill:#ffffff;fill-opacity:1;stroke:#000000;stroke-width:0;stroke-linecap:round;stroke-linejoin:miter;stroke-miterlimit:4;stroke-dasharray:none;stroke-opacity:1" />
          <path
             sodipodi:nodetypes="cc"
             inkscape:connector-curvature="0"
             id="path4969-8-9-0-9-7"
             d="M -7.2023569,20.680642 6.832283,14.25332"
             style="opacity:1;fill:#ffffff;fill-opacity:1;stroke:#000000;stroke-width:0;stroke-linecap:round;stroke-linejoin:miter;stroke-miterlimit:4;stroke-dasharray:none;stroke-opacity:1" />
          <path
             sodipodi:nodetypes="cc"
             inkscape:connector-curvature="0"
             id="path4969-8-0-6-0-4"
             d="M -7.2023569,22.656568 6.832283,16.229246"
             style="opacity:1;fill:#ffffff;fill-opacity:1;stroke:#000000;stroke-width:0;stroke-linecap:round;stroke-linejoin:miter;stroke-miterlimit:4;stroke-dasharray:none;stroke-opacity:1" />
          <path
             sodipodi:nodetypes="cc"
             inkscape:connector-curvature="0"
             id="path4969-8-9-5-4-3-9"
             d="M -7.2023569,24.632494 6.832283,18.205172"
             style="opacity:1;fill:#ffffff;fill-opacity:1;stroke:#000000;stroke-width:0;stroke-linecap:round;stroke-linejoin:miter;stroke-miterlimit:4;stroke-dasharray:none;stroke-opacity:1" />
          <path
             sodipodi:nodetypes="cc"
             inkscape:connector-curvature="0"
             id="path4969-8-1-2-7-74"
             d="M -7.2023569,26.60842 6.832283,20.181098"
             style="opacity:1;fill:#ffffff;fill-opacity:1;stroke:#000000;stroke-width:0;stroke-linecap:round;stroke-linejoin:miter;stroke-miterlimit:4;stroke-dasharray:none;stroke-opacity:1" />
          <path
             sodipodi:nodetypes="cc"
             inkscape:connector-curvature="0"
             id="path4969-87-8-0-7"
             d="M 25.601649,16.728791 11.567012,10.301469"
             style="opacity:1;fill:#ffffff;fill-opacity:1;stroke:#000000;stroke-width:0;stroke-linecap:round;stroke-linejoin:miter;stroke-miterlimit:4;stroke-dasharray:none;stroke-opacity:1" />
          <path
             sodipodi:nodetypes="cc"
             inkscape:connector-curvature="0"
             id="path4969-8-96-2-8-63"
             d="M 25.601649,18.704716 11.567012,12.277395"
             style="opacity:1;fill:#ffffff;fill-opacity:1;stroke:#000000;stroke-width:0;stroke-linecap:round;stroke-linejoin:miter;stroke-miterlimit:4;stroke-dasharray:none;stroke-opacity:1" />
          <path
             sodipodi:nodetypes="cc"
             inkscape:connector-curvature="0"
             id="path4969-8-9-6-8-7-3"
             d="M 25.601649,20.680642 11.567012,14.25332"
             style="opacity:1;fill:#ffffff;fill-opacity:1;stroke:#000000;stroke-width:0;stroke-linecap:round;stroke-linejoin:miter;stroke-miterlimit:4;stroke-dasharray:none;stroke-opacity:1" />
          <path
             sodipodi:nodetypes="cc"
             inkscape:connector-curvature="0"
             id="path4969-8-0-3-7-4-6"
             d="M 25.601649,22.656568 11.567012,16.229246"
             style="opacity:1;fill:#ffffff;fill-opacity:1;stroke:#000000;stroke-width:0;stroke-linecap:round;stroke-linejoin:miter;stroke-miterlimit:4;stroke-dasharray:none;stroke-opacity:1" />
          <path
             sodipodi:nodetypes="cc"
             inkscape:connector-curvature="0"
             id="path4969-8-9-5-6-9-6-7"
             d="M 25.601649,24.632494 11.567012,18.205172"
             style="opacity:1;fill:#ffffff;fill-opacity:1;stroke:#000000;stroke-width:0;stroke-linecap:round;stroke-linejoin:miter;stroke-miterlimit:4;stroke-dasharray:none;stroke-opacity:1" />
          <path
             sodipodi:nodetypes="cc"
             inkscape:connector-curvature="0"
             id="path4969-8-1-7-4-6-30"
             d="M 25.601649,26.60842 11.567012,20.181098"
             style="opacity:1;fill:#ffffff;fill-opacity:1;stroke:#000000;stroke-width:0;stroke-linecap:round;stroke-linejoin:miter;stroke-miterlimit:4;stroke-dasharray:none;stroke-opacity:1" />
          <path
             id="rect6625-6-4-4"
             d="M -27.302596,7.2137668 V 22.314742 l 17.101393,7.922512 V 15.136279 Z"
             style="opacity:0.98999999;fill:#87cdde;fill-opacity:1;fill-rule:nonzero;stroke:none;stroke-width:0.13022582;stroke-linecap:square;stroke-linejoin:miter;stroke-miterlimit:4;stroke-dasharray:none;stroke-dashoffset:0;stroke-opacity:1;paint-order:stroke fill markers"
             inkscape:connector-curvature="0" />
          <path
             id="rect6625-6-7-8"
             d="M -27.302589,38.018279 V 23.055537 l 17.101386,-7.849988 v 14.962742 z"
             style="opacity:0.5;fill:#ffe680;fill-opacity:1;fill-rule:nonzero;stroke:none;stroke-width:0.12962842;stroke-linecap:square;stroke-linejoin:miter;stroke-miterlimit:4;stroke-dasharray:none;stroke-dashoffset:0;stroke-opacity:1;paint-order:stroke fill markers"
             inkscape:connector-curvature="0" />
          <path
             id="rect6625-8-3-7"
             d="M -28.834945,38.067773 V 23.10503 l -17.101387,-7.849988 v 14.962742 z"
             style="opacity:1;fill:#ffffff;fill-opacity:1;fill-rule:nonzero;stroke:#000000;stroke-width:0;stroke-linecap:round;stroke-linejoin:miter;stroke-miterlimit:4;stroke-dasharray:none;stroke-dashoffset:0;stroke-opacity:1;paint-order:stroke fill markers"
             inkscape:connector-curvature="0" />
          <path
             inkscape:connector-curvature="0"
             id="rect6625-0-73"
             d="M -28.834954,7.2137517 V 22.314737 L -45.93634,30.237246 V 15.136261 Z"
             style="opacity:1;fill:#ffe680;fill-opacity:1;fill-rule:nonzero;stroke:none;stroke-width:0.13022585;stroke-linecap:square;stroke-linejoin:miter;stroke-miterlimit:4;stroke-dasharray:none;stroke-dashoffset:0;stroke-opacity:1;paint-order:stroke fill markers" />
          <path
             id="rect6625-8-3"
             d="M -28.834945,38.067773 V 23.10503 l -17.101387,-7.849986 v 14.96274 z"
             style="opacity:0.98999999;fill:#c3e6ee;fill-opacity:1;fill-rule:nonzero;stroke:none;stroke-width:0.12962842;stroke-linecap:square;stroke-linejoin:miter;stroke-miterlimit:4;stroke-dasharray:none;stroke-dashoffset:0;stroke-opacity:1;paint-order:stroke fill markers"
             inkscape:connector-curvature="0" />
          <path
             sodipodi:nodetypes="cc"
             inkscape:connector-curvature="0"
             id="path4969-8-0-6"
             d="m -44.469835,26.618246 14.034638,6.42732"
             style="opacity:1;fill:#ffffff;fill-opacity:1;stroke:#ffe680;stroke-width:2.08157635;stroke-linecap:round;stroke-linejoin:bevel;stroke-miterlimit:4;stroke-dasharray:none;stroke-opacity:1" />
          <path
             sodipodi:nodetypes="cc"
             inkscape:connector-curvature="0"
             id="path4969-8-1-2"
             d="m -44.469835,20.660016 14.034638,6.42732"
             style="opacity:1;fill:#ffffff;fill-opacity:1;stroke:#ffe680;stroke-width:2.08200002;stroke-linecap:round;stroke-linejoin:round;stroke-miterlimit:4;stroke-dasharray:none;stroke-opacity:1" />
          <path
             sodipodi:nodetypes="cc"
             inkscape:connector-curvature="0"
             id="path4969-8-0-3-7"
             d="m -11.665827,26.618246 -14.034642,6.42732"
             style="opacity:0.98999999;fill:#ffffff;fill-opacity:1;stroke:#c3e6ee;stroke-width:2.08157635;stroke-linecap:round;stroke-linejoin:bevel;stroke-miterlimit:4;stroke-dasharray:none;stroke-opacity:1" />
          <path
             sodipodi:nodetypes="cc"
             inkscape:connector-curvature="0"
             id="path4969-8-1-7-4"
             d="m -11.665827,20.660016 -14.034642,6.42732"
             style="opacity:0.98999999;fill:#ffffff;fill-opacity:1;stroke:#c3e6ee;stroke-width:2.08157635;stroke-linecap:round;stroke-linejoin:bevel;stroke-miterlimit:4;stroke-dasharray:none;stroke-opacity:1" />
          <path
             id="rect6625-6-7-8-8"
             d="M 9.9648893,7.2437791 V 22.206521 L 27.066273,30.05651 V 15.093767 Z"
             style="opacity:0.5;fill:#ffe680;fill-opacity:1;fill-rule:nonzero;stroke:none;stroke-width:0.12962842;stroke-linecap:square;stroke-linejoin:miter;stroke-miterlimit:4;stroke-dasharray:none;stroke-dashoffset:0;stroke-opacity:1;paint-order:stroke fill markers"
             inkscape:connector-curvature="0" />
          <path
             id="rect6625-8-3-5"
             d="M 8.4325336,7.1942857 V 22.157026 L -8.6688511,30.007014 V 15.044272 Z"
             style="opacity:0.98999999;fill:#c3e6ee;fill-opacity:1;fill-rule:nonzero;stroke:none;stroke-width:0.12962842;stroke-linecap:square;stroke-linejoin:miter;stroke-miterlimit:4;stroke-dasharray:none;stroke-dashoffset:0;stroke-opacity:1;paint-order:stroke fill markers"
             inkscape:connector-curvature="0" />
          <path
             sodipodi:nodetypes="cc"
             inkscape:connector-curvature="0"
             id="path4969-09-8"
             d="M -7.2023569,18.735169 6.832283,12.307845"
             style="opacity:1;fill:#ffffff;fill-opacity:1;stroke:#ffe680;stroke-width:2.08157635;stroke-linecap:round;stroke-linejoin:bevel;stroke-miterlimit:4;stroke-dasharray:none;stroke-opacity:1" />
          <path
             sodipodi:nodetypes="cc"
             inkscape:connector-curvature="0"
             id="path4969-8-9-0-9"
             d="M -7.2023569,24.693398 6.832283,18.266076"
             style="opacity:1;fill:#ffffff;fill-opacity:1;stroke:#ffe680;stroke-width:2.08157635;stroke-linecap:round;stroke-linejoin:bevel;stroke-miterlimit:4;stroke-dasharray:none;stroke-opacity:1" />
          <path
             inkscape:connector-curvature="0"
             id="rect6625-0-73-5"
             d="M 8.4325261,38.048307 V 22.94732 L -8.6688568,15.02481 v 15.100987 z"
             style="opacity:1;fill:#ffe680;fill-opacity:1;fill-rule:nonzero;stroke:none;stroke-width:0.13022585;stroke-linecap:square;stroke-linejoin:miter;stroke-miterlimit:4;stroke-dasharray:none;stroke-dashoffset:0;stroke-opacity:1;paint-order:stroke fill markers" />
          <path
             sodipodi:nodetypes="cc"
             inkscape:connector-curvature="0"
             id="path4969-87-8-0"
             d="M 25.601649,18.735169 11.567012,12.307845"
             style="opacity:0.98999999;fill:#ffffff;fill-opacity:1;stroke:#c3e6ee;stroke-width:2.08157635;stroke-linecap:round;stroke-linejoin:bevel;stroke-miterlimit:4;stroke-dasharray:none;stroke-opacity:1" />
          <path
             sodipodi:nodetypes="cc"
             inkscape:connector-curvature="0"
             id="path4969-8-9-6-8-7"
             d="M 25.601649,24.693398 11.567012,18.266076"
             style="opacity:0.98999999;fill:#ffffff;fill-opacity:1;stroke:#c3e6ee;stroke-width:2.08157635;stroke-linecap:round;stroke-linejoin:bevel;stroke-miterlimit:4;stroke-dasharray:none;stroke-opacity:1" />
          <path
             id="rect6625-6-4-4-7"
             d="M 9.9648836,38.04829 V 22.947316 L 27.066273,15.024804 V 30.12578 Z"
             style="opacity:0.98999999;fill:#87cdde;fill-opacity:1;fill-rule:nonzero;stroke:none;stroke-width:0.13022582;stroke-linecap:square;stroke-linejoin:miter;stroke-miterlimit:4;stroke-dasharray:none;stroke-dashoffset:0;stroke-opacity:1;paint-order:stroke fill markers"
             inkscape:connector-curvature="0" />
        </g>
      </g>
    </g>
  </g>
</svg>
